<svg width="260" height="80" viewBox="0 0 260 80" fill="none" xmlns="http://www.w3.org/2000/svg">
<path d="M1.96356 60.36C2.15022 59.0533 2.31356 57.5367 2.45355 55.81C2.64022 54.0367 2.80356 52.2633 2.94355 50.49C3.08355 48.7167 3.22355 46.99 3.36355 45.31C3.50356 43.5833 3.64356 42.09 3.78356 40.83C3.55022 42.09 3.34022 43.5367 3.15355 45.17C2.96689 46.8033 2.78022 48.4833 2.59355 50.21C2.40689 51.9367 2.22022 53.6633 2.03356 55.39C1.84689 57.07 1.68355 58.5867 1.54355 59.94C0.843555 59.4733 0.493555 58.8433 0.493555 58.05C0.493555 57.1167 0.516888 56.3467 0.563555 55.74C0.610222 55.0867 0.680222 54.34 0.773555 53.5L1.54355 52.8C1.49689 52.5667 1.47356 52.3567 1.47356 52.17V51.47C1.47356 50.3967 1.59022 49.1833 1.82355 47.83C2.05689 46.43 2.31355 45.03 2.59355 43.63C2.92022 42.1833 3.20022 40.8067 3.43355 39.5C3.66689 38.1467 3.78356 36.98 3.78356 36L2.94355 35.79C2.85022 36.91 2.71022 38.1933 2.52356 39.64C2.33689 41.04 2.12689 42.51 1.89355 44.05C1.70689 45.5433 1.52022 47.0367 1.33355 48.53C1.24022 49.3233 1.14689 50.07 1.05355 50.77C1.14689 49.4633 1.26356 48.0633 1.40355 46.57C1.63689 44.4233 1.87022 42.3 2.10355 40.2C2.38356 38.0533 2.64022 35.9533 2.87355 33.9C3.10689 31.8467 3.34022 29.9567 3.57356 28.23C3.57356 27.53 3.73689 26.7833 4.06356 25.99C4.43689 25.15 4.69356 24.2867 4.83356 23.4C5.11355 23.4933 5.34689 23.54 5.53355 23.54H6.02355C6.49022 23.54 6.79356 23.6567 6.93355 23.89C7.07355 24.0767 7.14356 24.3567 7.14356 24.73V25.08L7.77356 25.29C8.14689 24.59 8.59022 24.03 9.10355 23.61C9.61689 23.19 10.1302 22.98 10.6436 22.98C11.7636 22.98 12.3236 24.17 12.3236 26.55C12.3236 27.81 12.1836 29.1633 11.9036 30.61C11.6702 32.01 11.5536 33.3867 11.5536 34.74V35.65C11.5536 37.1433 11.3902 38.7767 11.0636 40.55C10.7369 42.2767 10.3636 44.05 9.94356 45.87C9.57022 47.6433 9.22022 49.37 8.89356 51.05C8.56689 52.73 8.40356 54.27 8.40356 55.67C8.40356 55.9967 8.42689 56.3467 8.47356 56.72C8.52022 57.0933 8.54355 57.4433 8.54355 57.77C8.54355 58.47 8.40355 58.9133 8.12356 59.1C7.89022 59.24 7.58689 59.31 7.21356 59.31C7.21356 58.7033 7.19022 57.9567 7.14356 57.07C7.09689 56.1833 7.07355 55.39 7.07355 54.69C6.98022 55.2033 6.93355 55.9033 6.93355 56.79C6.93355 57.6767 6.88689 58.5167 6.79356 59.31H5.74356V60.15C5.32356 60.8967 4.76356 61.27 4.06356 61.27C3.73689 61.27 3.36356 61.1767 2.94355 60.99C2.52355 60.8033 2.19689 60.5933 1.96356 60.36ZM16.3836 6.6C15.5902 7.06666 14.8669 7.67333 14.2136 8.42C13.5602 9.16666 12.8836 9.89 12.1836 10.59C12.6036 10.31 12.9769 10.0067 13.3036 9.68C13.6302 9.35333 13.9569 9.02666 14.2836 8.7C14.6569 8.37333 15.0302 8.04666 15.4036 7.72C15.8236 7.39333 16.2902 7.09 16.8036 6.81C16.9436 6.99666 17.0602 7.16 17.1536 7.3C17.2936 7.44 17.3636 7.58 17.3636 7.72L15.7536 9.33C15.7536 9.23666 15.6602 9.14333 15.4736 9.05C15.3336 8.95666 15.2169 8.91 15.1236 8.91C14.9836 9.37666 14.7502 9.75 14.4236 10.03C14.0969 10.31 13.7702 10.5667 13.4436 10.8C13.1169 11.0333 12.7902 11.29 12.4636 11.57C12.1369 11.85 11.9036 12.2233 11.7636 12.69V12.83C11.7636 12.8767 11.8336 12.9 11.9736 12.9L15.4736 9.61L14.1436 10.94C13.4902 11.5933 12.7902 12.27 12.0436 12.97C11.3436 13.6233 10.6669 14.2067 10.0136 14.72C9.40689 15.2333 9.03356 15.49 8.89356 15.49L8.82356 15.42C8.49689 15.3267 8.14689 15.28 7.77356 15.28C7.44689 15.28 7.09689 15.2567 6.72356 15.21C6.72356 14.8367 6.65356 14.44 6.51355 14.02C6.42022 13.6 6.37356 13.2733 6.37356 13.04C6.37356 12.8067 6.49022 12.69 6.72356 12.69C6.72356 12.55 6.63022 12.34 6.44355 12.06C6.30356 11.7333 6.14022 11.3833 5.95355 11.01C5.76689 10.59 5.58022 10.17 5.39355 9.75C5.25356 9.28333 5.18356 8.81667 5.18356 8.35C5.18356 7.88333 5.37022 7.44 5.74356 7.02C6.16356 6.55333 6.63022 6.15666 7.14356 5.83C7.70355 5.50333 8.24022 5.22333 8.75356 4.99C9.26689 4.75666 9.64022 4.59333 9.87356 4.5C10.0602 4.5 10.1302 4.40666 10.0836 4.22C10.0369 3.98666 10.1069 3.87 10.2936 3.87L11.5536 4.29C11.4602 4.52333 11.1569 4.92 10.6436 5.48C10.1769 5.99333 9.82689 6.36666 9.59355 6.6C9.92022 6.36666 10.2936 6.01666 10.7136 5.55C11.1802 5.08333 11.5302 4.73333 11.7636 4.5C11.9969 4.59333 12.2069 4.68666 12.3936 4.78C12.5802 4.87333 12.7202 4.92 12.8136 4.92L13.0236 4.71C13.3502 4.71 13.7002 4.78 14.0736 4.92C14.4936 5.06 14.8669 5.22333 15.1936 5.41C15.5202 5.59666 15.8002 5.80666 16.0336 6.04C16.2669 6.27333 16.3836 6.46 16.3836 6.6ZM0.913555 52.45C0.960222 51.9367 1.00689 51.4233 1.05355 50.91C1.00689 51.47 0.960222 51.9833 0.913555 52.45ZM23.6756 59.52C23.6756 59.2867 23.7456 59.0067 23.8856 58.68C24.0256 58.3533 24.0956 58.0033 24.0956 57.63C24.2356 56.51 24.3289 55.7167 24.3756 55.25C24.4223 54.7367 24.4456 54.2933 24.4456 53.92C24.4456 51.96 24.3756 49.86 24.2356 47.62C24.1423 45.3333 24.0256 43.14 23.8856 41.04C23.8856 40.3867 23.8623 39.6167 23.8156 38.73C23.8156 37.8433 23.7689 37.1433 23.6756 36.63C23.8156 34.9967 23.9323 33.3867 24.0256 31.8C24.1189 30.2133 24.1656 28.6033 24.1656 26.97V25.22C24.1656 24.6133 24.1423 24.0067 24.0956 23.4C24.2356 23.54 24.3756 23.61 24.5156 23.61C24.7023 23.61 24.8889 23.54 25.0756 23.4C25.3089 23.26 25.5189 23.19 25.7056 23.19C26.0323 23.19 26.2889 23.54 26.4756 24.24C26.7089 24.94 26.8256 26.48 26.8256 28.86H27.4556C27.6889 26.2467 28.0389 24.17 28.5056 22.63C29.0189 21.09 29.5323 20.32 30.0456 20.32C30.2789 20.32 30.6523 20.8333 31.1656 21.86C31.6789 22.84 31.9356 24.4033 31.9356 26.55L32.7056 25.29C33.2189 24.6833 33.7789 24.0533 34.3856 23.4C35.0389 22.7467 35.7623 22.1633 36.5556 21.65C37.3489 21.1367 38.2356 20.7167 39.2156 20.39C40.1956 20.0167 41.3156 19.83 42.5756 19.83C45.0023 19.83 47.1023 20.39 48.8756 21.51C50.6956 22.5833 52.2123 24.0067 53.4256 25.78C54.6389 27.5067 55.6189 29.49 56.3656 31.73C57.1589 33.9233 57.7656 36.1633 58.1856 38.45C58.6056 40.69 58.8856 42.86 59.0256 44.96C59.1656 47.06 59.2356 48.8567 59.2356 50.35C59.2356 51.7033 59.1423 52.52 58.9556 52.8C58.8156 53.0333 58.5356 53.1733 58.1156 53.22C58.0223 49.6267 57.7889 45.9633 57.4156 42.23C57.0423 38.4967 56.1556 34.88 54.7556 31.38C56.0156 35.0667 56.8089 38.7067 57.1356 42.3C57.5089 45.8467 57.6956 49.4167 57.6956 53.01C57.4156 52.87 57.1589 52.8 56.9256 52.8C56.7389 52.8 56.5756 52.87 56.4356 53.01C56.4356 53.3833 56.4589 53.78 56.5056 54.2C56.5523 54.5733 56.5756 54.9467 56.5756 55.32C56.6223 55.6933 56.6456 56.0433 56.6456 56.37C56.3656 57.4433 56.0856 58.2133 55.8056 58.68C55.5256 59.1467 55.2689 59.38 55.0356 59.38C54.7556 59.38 54.5223 59.2633 54.3356 59.03C54.1489 58.75 53.9623 58.4233 53.7756 58.05C53.6356 57.6767 53.4723 57.28 53.2856 56.86C53.1456 56.3933 52.9356 55.95 52.6556 55.53C52.7489 54.7367 52.8189 54.1067 52.8656 53.64C52.9123 53.1267 52.9356 52.7067 52.9356 52.38C52.9356 51.12 52.9123 49.6033 52.8656 47.83C52.8189 46.0567 52.6789 44.2133 52.4456 42.3C52.2589 40.34 51.9323 38.4033 51.4656 36.49C51.0456 34.53 50.4389 32.8033 49.6456 31.31C48.8989 29.77 47.9423 28.5333 46.7756 27.6C45.6089 26.62 44.2089 26.13 42.5756 26.13C41.4556 26.13 40.4523 26.5033 39.5656 27.25C38.7256 27.9967 37.9789 28.9533 37.3256 30.12C36.7189 31.2867 36.1823 32.57 35.7156 33.97C35.2489 35.3233 34.8756 36.63 34.5956 37.89C35.0156 36.5833 35.4356 35.2533 35.8556 33.9C36.3223 32.5467 36.8589 31.31 37.4656 30.19C38.1189 29.07 38.8656 28.16 39.7056 27.46C40.5456 26.7133 41.5256 26.34 42.6456 26.34C44.0923 26.34 45.3289 26.7367 46.3556 27.53C47.4289 28.3233 48.3156 29.35 49.0156 30.61C49.7623 31.87 50.3456 33.3167 50.7656 34.95C51.2323 36.5367 51.5823 38.17 51.8156 39.85C52.0489 41.4833 52.1889 43.0933 52.2356 44.68C52.3289 46.22 52.3756 47.55 52.3756 48.67C52.3756 49.5567 52.3523 50.4433 52.3056 51.33C52.3056 52.2167 52.2823 53.1267 52.2356 54.06C51.8156 52.2867 51.4889 50.4433 51.2556 48.53C51.0689 46.57 50.8589 44.6567 50.6256 42.79C50.3923 40.8767 50.0889 39.0567 49.7156 37.33C49.3889 35.5567 48.8989 33.9233 48.2456 32.43L48.7356 31.73C48.2689 30.6567 47.7323 29.84 47.1256 29.28C46.5656 28.6733 46.0056 28.23 45.4456 27.95C44.8856 27.67 44.3723 27.5067 43.9056 27.46C43.4389 27.4133 43.1356 27.39 42.9956 27.39C41.8289 27.39 40.7789 27.81 39.8456 28.65C38.9589 29.49 38.1656 30.6333 37.4656 32.08C36.8123 33.48 36.2289 35.1133 35.7156 36.98C35.2023 38.8467 34.7589 40.8067 34.3856 42.86C34.0123 44.9133 33.6856 46.99 33.4056 49.09C33.1256 51.1433 32.8923 53.08 32.7056 54.9H33.3356C33.5689 53.3133 33.8023 51.5633 34.0356 49.65C34.3156 47.7367 34.5956 45.8 34.8756 43.84C35.2023 41.8333 35.5756 39.8967 35.9956 38.03C36.4156 36.1633 36.9056 34.4833 37.4656 32.99C38.0723 31.4967 38.7723 30.2833 39.5656 29.35C40.3123 28.4633 41.2223 27.95 42.2956 27.81C41.2689 28.0433 40.4056 28.6967 39.7056 29.77C38.9589 30.89 38.3056 32.2667 37.7456 33.9C37.1856 35.5333 36.6723 37.33 36.2056 39.29C35.7856 41.2033 35.3889 43.0467 35.0156 44.82L33.6156 55.04C33.4289 55.6933 33.2889 56.2767 33.1956 56.79L32.9156 58.26C32.8223 58.7267 32.7289 59.24 32.6356 59.8C32.5423 60.3133 32.4256 60.92 32.2856 61.62L32.0756 62.46H31.6556L24.5856 60.08C24.3523 60.0333 24.1656 59.9633 24.0256 59.87C23.9323 59.7767 23.8156 59.66 23.6756 59.52ZM35.8556 23.61C34.9223 24.4033 34.1756 25.2667 33.6156 26.2C33.1023 27.0867 32.6123 27.9967 32.1456 28.93V29C32.7989 27.6467 33.7089 26.27 34.8756 24.87C35.9956 23.5633 37.4889 22.5833 39.3556 21.93C38.7489 22.1167 38.1656 22.3033 37.6056 22.49C36.9523 22.7233 36.3689 23.0967 35.8556 23.61ZM44.2556 21.3C44.0223 21.2533 43.6956 21.23 43.2756 21.23C44.7689 21.6033 46.1689 22.0233 47.4756 22.49C48.7823 22.91 50.0189 23.7733 51.1856 25.08C50.3923 24.0067 49.3423 23.1667 48.0356 22.56C46.7756 21.9533 45.5156 21.5333 44.2556 21.3ZM46.1456 29.28C45.7723 29 45.3289 28.79 44.8156 28.65C44.3489 28.4633 43.7656 28.23 43.0656 27.95L42.9956 27.81C43.7889 27.8567 44.4889 28.0433 45.0956 28.37C45.7023 28.65 46.2856 29.1633 46.8456 29.91L46.1456 29.28ZM51.3256 25.22C51.9789 26.0133 52.5856 26.9233 53.1456 27.95C53.7056 28.9767 54.1956 29.8867 54.6156 30.68C54.1489 29.6067 53.7056 28.6267 53.2856 27.74C52.8656 26.8533 52.2123 26.0133 51.3256 25.22ZM95.0171 27.81C92.9171 28.1833 90.8871 28.58 88.9271 29C86.9671 29.3733 84.8671 29.7233 82.6271 30.05V30.12C84.6337 29.98 86.6404 29.7 88.6471 29.28C90.6537 28.8133 92.7071 28.5333 94.8071 28.44C94.5737 29 93.9671 29.49 92.9871 29.91C92.0537 30.2833 91.2137 30.47 90.4671 30.47C89.7204 30.47 89.3471 30.2833 89.3471 29.91C88.2271 30.3767 87.1071 30.6567 85.9871 30.75L82.6271 31.03V31.59C83.7471 31.4033 84.8437 31.24 85.9171 31.1C86.8504 31.0067 87.8071 30.8667 88.7871 30.68C86.7337 31.1467 84.6804 31.52 82.6271 31.8V37.26C82.4871 39.64 82.4171 42.0667 82.4171 44.54C82.4171 47.0133 82.3471 49.4867 82.2071 51.96C82.0671 54.3867 81.7871 56.8133 81.3671 59.24C80.9471 61.62 80.2471 63.9533 79.2671 66.24C78.8471 67.5 78.3337 68.76 77.7271 70.02C77.1204 71.3267 76.4904 72.4933 75.8371 73.52C75.2304 74.5933 74.6237 75.4567 74.0171 76.11C73.4571 76.7633 72.9671 77.09 72.5471 77.09C72.3604 77.09 72.2204 76.9733 72.1271 76.74C72.8737 75.6667 73.6671 74.5467 74.5071 73.38C75.3471 72.2133 76.0937 70.9533 76.7471 69.6C77.2604 68.2933 77.7037 67.0333 78.0771 65.82C78.4504 64.6067 78.8004 63.3467 79.1271 62.04C78.3804 64.7933 77.3771 67.36 76.1171 69.74C74.8571 72.1667 73.4571 74.36 71.9171 76.32C71.8237 76.0867 71.7071 75.9233 71.5671 75.83C71.4271 75.7367 71.1937 75.69 70.8671 75.69L69.6071 77.58C68.6737 78.56 67.9271 79.05 67.3671 79.05C66.9937 79.05 66.7137 78.84 66.5271 78.42C66.3404 78 66.2471 77.44 66.2471 76.74L66.6671 75.06L67.5071 74.01C68.5337 72.7967 69.4437 71.63 70.2371 70.51C71.0304 69.39 71.7071 68.2 72.2671 66.94C72.8737 65.7267 73.3871 64.3967 73.8071 62.95C74.2737 61.5033 74.6937 59.8233 75.0671 57.91C74.8337 59.03 74.5304 60.1733 74.1571 61.34C73.8304 62.5067 73.4571 63.6267 73.0371 64.7C72.6171 65.7733 72.1504 66.7533 71.6371 67.64C71.1704 68.5733 70.6337 69.3433 70.0271 69.95L67.0871 73.59C67.4604 72.47 67.9271 71.42 68.4871 70.44C69.0471 69.5067 69.6304 68.5033 70.2371 67.43C70.8437 66.3567 71.4271 65.1667 71.9871 63.86C72.5471 62.5533 73.0137 60.99 73.3871 59.17L74.0171 59.1C74.3904 56.58 74.6237 54.1067 74.7171 51.68C74.8571 49.2067 74.9271 46.6867 74.9271 44.12C74.9271 42.3 74.9037 40.4567 74.8571 38.59C74.8571 36.7233 74.8337 34.81 74.7871 32.85C74.6937 32.8967 74.5771 32.92 74.4371 32.92H74.0871C74.1337 35.3933 74.2037 37.7967 74.2971 40.13C74.4371 42.4633 74.5071 44.7733 74.5071 47.06C74.5071 49.02 74.4137 50.9567 74.2271 52.87C74.0871 54.69 73.8071 56.51 73.3871 58.33C73.7604 56.6967 73.9937 55.04 74.0871 53.36C74.2271 51.6333 74.2971 49.8833 74.2971 48.11C74.2971 45.6833 74.2271 43.21 74.0871 40.69C73.9471 38.17 73.8537 35.58 73.8071 32.92C73.5271 32.9667 73.2004 33.0133 72.8271 33.06C72.4537 33.06 71.8704 33.06 71.0771 33.06C70.0037 32.64 68.9537 32.43 67.9271 32.43V32.15C67.9271 31.9633 67.9037 31.7767 67.8571 31.59C67.8571 31.3567 67.8571 31.1233 67.8571 30.89C67.8571 30.33 68.1137 30.05 68.6271 30.05L69.1871 29.28C68.5337 29.0467 68.0437 28.6733 67.7171 28.16C67.3904 27.6467 67.2271 27.1333 67.2271 26.62C67.2271 25.92 67.4604 25.43 67.9271 25.15C68.3937 24.87 68.9771 24.6833 69.6771 24.59C70.3771 24.45 71.1237 24.4033 71.9171 24.45C72.7104 24.45 73.4337 24.4033 74.0871 24.31C74.2737 22.49 74.5771 20.5767 74.9971 18.57C75.4637 16.5167 76.1404 14.51 77.0271 12.55C77.9137 10.59 79.0571 8.74667 80.4571 7.02C81.9037 5.29333 83.6771 3.82333 85.7771 2.61C87.7837 1.39666 89.8604 0.673329 92.0071 0.439996C94.2004 0.159997 96.3004 0.0199976 98.3071 0.0199976H99.6371C100.057 0.0199976 100.477 0.0433306 100.897 0.0899967L100.967 1.56C100.967 1.74666 100.92 1.91 100.827 2.05C100.734 2.19 100.524 2.30666 100.197 2.4C99.9171 2.44666 99.4737 2.49333 98.8671 2.54C98.2604 2.58666 97.4671 2.61 96.4871 2.61C96.4871 2.70333 96.4871 2.84333 96.4871 3.03C96.5337 3.17 96.6037 3.24 96.6971 3.24C98.6571 3.38 100.127 3.8 101.107 4.5C102.134 5.2 102.647 5.73666 102.647 6.11C102.647 6.53 102.18 6.85667 101.247 7.09C100.36 7.32333 99.2404 7.58 97.8871 7.86C96.5804 8.09333 95.1571 8.39666 93.6171 8.77C92.1237 9.14333 90.7704 9.68 89.5571 10.38C85.7304 13.04 83.5371 17.4033 82.9771 23.47C84.0037 23.3767 85.0304 23.2367 86.0571 23.05C87.1304 22.8633 88.1571 22.77 89.1371 22.77C89.5104 22.77 89.9304 22.6533 90.3971 22.42C90.8637 22.1867 91.2837 22.07 91.6571 22.07C91.8904 22.07 92.0537 22.14 92.1471 22.28C92.2871 22.3733 92.4737 22.6067 92.7071 22.98C91.5871 23.5867 90.5137 24.0067 89.4871 24.24C89.9537 24.1467 90.4671 24.0533 91.0271 23.96C91.5871 23.82 92.1471 23.6333 92.7071 23.4C92.8004 23.6333 92.8704 23.8433 92.9171 24.03C92.9637 24.2167 93.0337 24.3567 93.1271 24.45C93.1737 24.45 93.2437 24.4267 93.3371 24.38C93.5237 24.2867 93.6637 24.24 93.7571 24.24C94.2704 24.4267 94.6437 24.7533 94.8771 25.22C95.1571 25.6867 95.2971 26.1533 95.2971 26.62C95.2971 26.8533 95.2737 27.0867 95.2271 27.32C95.2271 27.5067 95.1571 27.67 95.0171 27.81ZM75.6971 54.48C75.8837 53.4533 76.0471 52.4033 76.1871 51.33C76.3737 50.21 76.4671 49.09 76.4671 47.97C76.4671 46.1967 76.3504 44.4 76.1171 42.58C75.9304 40.9 75.7904 39.2433 75.6971 37.61C75.7437 39.15 75.7904 40.6667 75.8371 42.16C75.9304 43.7933 75.9771 45.4033 75.9771 46.99C75.9771 48.7167 75.9071 50.42 75.7671 52.1C75.6737 53.7333 75.5104 55.3667 75.2771 57V57.07L75.6971 54.48ZM80.7371 51.4C80.5971 54.62 80.1304 57.9567 79.3371 61.41C80.1304 58.0967 80.6204 54.7833 80.8071 51.47C81.0404 48.25 81.1571 45.0767 81.1571 41.95C81.0637 45.0767 80.9237 48.2267 80.7371 51.4ZM82.9071 24.66C83.3271 24.8 83.8171 24.87 84.3771 24.87C85.0304 24.87 85.6837 24.8 86.3371 24.66C87.0371 24.52 87.6904 24.38 88.2971 24.24C87.3637 24.3333 86.4537 24.4267 85.5671 24.52C84.7271 24.6133 83.8404 24.66 82.9071 24.66ZM89.3471 30.54C89.1604 30.5867 88.9971 30.6333 88.8571 30.68C88.9971 30.6333 89.1604 30.5867 89.3471 30.54ZM187.54 40.83C187.54 41.0633 187.26 41.9267 186.7 43.42C186.14 44.9133 185.463 46.6633 184.67 48.67C183.923 50.63 183.13 52.66 182.29 54.76C181.45 56.7667 180.726 58.47 180.12 59.87L182.08 54.27C180.493 58.0967 178.673 61.9 176.62 65.68V65.89C175.64 65.89 174.683 65.8667 173.75 65.82C172.863 65.82 171.93 65.75 170.95 65.61C170.67 64.8633 170.32 64.0467 169.9 63.16C169.526 62.2267 169.13 61.2933 168.71 60.36C168.336 59.4267 167.94 58.5167 167.52 57.63C167.146 56.7433 166.796 55.9267 166.47 55.18L166.19 55.6C165.21 53.5933 164.136 51.5633 162.97 49.51C161.85 47.4567 160.753 45.4967 159.68 43.63C158.606 41.7167 157.626 39.99 156.74 38.45C155.853 36.8633 155.2 35.58 154.78 34.6C153.66 32.1733 152.703 29.6767 151.91 27.11C151.116 24.5433 150.3 21.9767 149.46 19.41C149.786 19.2233 150.066 19.06 150.3 18.92C150.58 18.78 150.836 18.71 151.07 18.71C151.35 18.71 151.606 18.92 151.84 19.34C152.12 19.76 152.376 20.2267 152.61 20.74C152.843 21.2533 153.03 21.7667 153.17 22.28C153.356 22.7933 153.473 23.12 153.52 23.26L154.15 22.84C153.916 21.9533 153.73 21.0667 153.59 20.18C153.45 19.2933 153.38 18.3833 153.38 17.45V16.89C153.38 16.5633 153.403 16.26 153.45 15.98C153.543 15.6533 153.66 15.3733 153.8 15.14C153.94 14.9067 154.126 14.79 154.36 14.79C154.686 14.79 155.27 15.49 156.11 16.89C156.95 18.29 157.883 20.0633 158.91 22.21C159.983 24.3567 161.103 26.7367 162.27 29.35C163.483 31.9167 164.626 34.4133 165.7 36.84C166.82 39.22 167.8 41.3433 168.64 43.21C169.48 45.0767 170.086 46.36 170.46 47.06C171.02 48.18 171.556 49.3233 172.07 50.49C172.63 51.61 173.236 52.73 173.89 53.85C175.943 49.3233 177.623 44.6567 178.93 39.85L182.85 25.43C182.99 24.9633 183.2 23.9833 183.48 22.49C183.76 20.9967 184.086 19.4567 184.46 17.87C184.833 16.2367 185.23 14.79 185.65 13.53C186.07 12.27 186.49 11.64 186.91 11.64L187.12 11.71C186.373 14.93 185.673 18.1267 185.02 21.3C184.366 24.4267 183.643 27.5767 182.85 30.75C183.736 27.67 184.53 24.5667 185.23 21.44C185.93 18.3133 186.723 15.21 187.61 12.13L188.24 12.55C188.333 12.2233 188.473 11.78 188.66 11.22C188.893 10.6133 189.15 10.03 189.43 9.47C189.71 8.86333 190.013 8.35 190.34 7.93C190.713 7.51 191.086 7.3 191.46 7.3C191.74 7.3 191.973 7.46333 192.16 7.79C192.393 8.11666 192.556 8.49 192.65 8.91C192.743 9.33 192.813 9.75 192.86 10.17C192.906 10.59 192.93 10.8933 192.93 11.08C192.93 11.1733 192.86 11.3833 192.72 11.71C192.626 11.99 192.556 12.2 192.51 12.34C191.296 16.3533 190.2 20.39 189.22 24.45C188.286 28.51 187.306 32.57 186.28 36.63C185.3 40.6433 184.18 44.6333 182.92 48.6C181.706 52.4733 180.236 56.3 178.51 60.08C180.236 56.3933 181.73 52.6133 182.99 48.74C184.296 44.7733 185.486 40.7833 186.56 36.77C187.68 32.71 188.73 28.65 189.71 24.59C190.736 20.53 191.88 16.5167 193.14 12.55C193.14 14.37 193 16.1667 192.72 17.94C192.44 19.7133 192.09 21.4867 191.67 23.26C191.25 25.0333 190.783 26.8067 190.27 28.58C189.756 30.3067 189.29 32.0333 188.87 33.76H188.24C187.166 38.7533 185.836 43.6533 184.25 48.46C184.67 47.34 185.113 46.22 185.58 45.1C186.046 43.98 186.536 42.8833 187.05 41.81L187.54 40.83ZM169.06 64C168.686 63.16 168.266 62.11 167.8 60.85C167.333 59.5433 166.913 58.3533 166.54 57.28C167.146 58.3067 167.683 59.4033 168.15 60.57C168.616 61.69 168.92 62.8333 169.06 64ZM182.85 30.75C181.916 34.3433 180.913 37.9133 179.84 41.46C179.046 44.0733 178.136 46.6633 177.11 49.23C178.183 46.71 179.14 44.12 179.98 41.46C181.1 37.96 182.056 34.39 182.85 30.75ZM177.53 66.24C176.876 66.1467 176.223 66.1 175.57 66.1H173.61C174.076 66.0533 174.52 66.03 174.94 66.03H177.32L179 62.53H179.28L177.53 66.24ZM169.83 66.1C169.736 65.8667 169.62 65.5633 169.48 65.19C169.386 64.8633 169.246 64.49 169.06 64.07C169.246 64.35 169.55 64.6767 169.97 65.05C170.39 65.47 170.716 65.8667 170.95 66.24L169.83 66.1ZM179.28 62.46H179C179.093 62.2733 179.233 61.97 179.42 61.55C179.606 61.0833 179.84 60.5467 180.12 59.94L179.28 62.46ZM199.724 59.73C200.704 57.07 201.381 54.2 201.754 51.12C202.127 47.9933 202.407 44.8667 202.594 41.74C202.594 41.2733 202.571 40.83 202.524 40.41C202.524 40.0367 202.524 39.6867 202.524 39.36C202.384 42.8133 202.104 46.2667 201.684 49.72C201.311 53.2667 200.517 56.5333 199.304 59.52C199.117 59.1467 198.977 58.82 198.884 58.54C198.791 58.26 198.744 57.9333 198.744 57.56C198.744 56.44 198.931 55.2733 199.304 54.06C199.677 52.8467 199.911 51.5867 200.004 50.28L200.984 49.86C200.984 47.5733 201.077 45.31 201.264 43.07C201.451 40.7833 201.544 38.4967 201.544 36.21C201.544 35.0433 201.497 33.9 201.404 32.78C201.357 31.66 201.217 30.4933 200.984 29.28H200.564C200.844 32.5933 200.984 35.7667 200.984 38.8C200.984 40.34 200.937 41.81 200.844 43.21C200.751 44.5167 200.587 45.8467 200.354 47.2C200.494 46.1733 200.587 45.1933 200.634 44.26C200.727 43.1867 200.774 42.0433 200.774 40.83C200.774 37.05 200.611 33.2233 200.284 29.35C200.004 25.43 199.747 21.4167 199.514 17.31V15.35C199.654 14.79 199.724 14.1833 199.724 13.53C199.771 12.8767 199.841 12.2467 199.934 11.64C200.027 11.0333 200.191 10.5433 200.424 10.17C200.704 9.75 201.147 9.54 201.754 9.54L202.944 9.89L203.364 10.73H203.994C204.181 10.45 204.391 10.31 204.624 10.31C204.904 10.31 205.184 10.4267 205.464 10.66C205.744 10.8467 206.071 10.94 206.444 10.94C207.144 10.94 207.634 11.43 207.914 12.41C208.194 13.3433 208.381 14.5333 208.474 15.98C208.567 17.38 208.614 18.9433 208.614 20.67C208.614 22.35 208.707 23.9367 208.894 25.43C209.034 26.7833 209.151 28.16 209.244 29.56C209.384 30.9133 209.454 32.29 209.454 33.69C209.454 35.09 209.407 36.7233 209.314 38.59C209.221 40.4567 209.081 42.3933 208.894 44.4C208.754 46.36 208.567 48.32 208.334 50.28C208.101 52.24 207.844 53.99 207.564 55.53C207.284 57.07 206.957 58.33 206.584 59.31C206.211 60.2433 205.837 60.71 205.464 60.71C205.371 60.71 205.231 60.6633 205.044 60.57C205.371 59.0767 205.674 57.5833 205.954 56.09C206.281 54.5967 206.561 53.0333 206.794 51.4C206.467 52.8933 206.117 54.4333 205.744 56.02C205.417 57.56 205.044 59.0067 204.624 60.36C204.437 60.1733 204.204 60.08 203.924 60.08C203.831 60.08 203.714 60.1967 203.574 60.43C203.481 60.6633 203.341 60.9433 203.154 61.27C202.967 61.55 202.734 61.8067 202.454 62.04C202.174 62.2733 201.871 62.39 201.544 62.39C201.217 62.39 200.961 62.32 200.774 62.18C200.587 62.04 200.424 61.8767 200.284 61.69C200.191 61.4567 200.074 61.2233 199.934 60.99C199.841 60.7567 199.701 60.5467 199.514 60.36L199.724 59.73ZM207.844 39.57C207.564 40.5033 207.354 41.3667 207.214 42.16C207.121 42.9067 207.051 43.63 207.004 44.33C207.004 45.03 207.004 45.7533 207.004 46.5C207.004 47.1533 206.981 47.8767 206.934 48.67C207.121 47.0833 207.284 45.6367 207.424 44.33C207.611 42.93 207.751 41.3433 207.844 39.57ZM200.354 47.48C200.354 47.3867 200.354 47.2933 200.354 47.2C200.354 47.2933 200.354 47.3867 200.354 47.48ZM225.235 66.59C224.861 66.3567 224.628 65.82 224.535 64.98C224.441 64.14 224.395 63.1133 224.395 61.9V60.22H223.765C223.718 60.5 223.601 61.1533 223.415 62.18C223.275 63.2067 223.065 64.28 222.785 65.4C222.551 66.5667 222.248 67.5933 221.875 68.48C221.548 69.3667 221.175 69.81 220.755 69.81C220.381 69.81 220.078 69.32 219.845 68.34C219.611 67.36 219.448 66.2167 219.355 64.91C219.261 63.65 219.191 62.39 219.145 61.13C219.145 59.8233 219.145 58.8667 219.145 58.26C219.145 55.04 219.191 51.8667 219.285 48.74C219.378 45.5667 219.425 42.3933 219.425 39.22C219.425 36.0467 219.168 32.8967 218.655 29.77C218.141 26.5967 217.885 23.47 217.885 20.39C218.538 19.55 219.145 18.6867 219.705 17.8C220.311 16.9133 220.895 16.0033 221.455 15.07C223.135 14.65 224.885 14.2533 226.705 13.88C228.525 13.5067 230.321 13.32 232.095 13.32C236.995 13.32 241.171 14.09 244.625 15.63C248.125 17.1233 250.971 19.27 253.165 22.07C255.358 24.8233 256.968 28.1367 257.995 32.01C259.021 35.8367 259.535 40.06 259.535 44.68C259.535 52.1467 257.481 57.7 253.375 61.34C249.268 64.9333 243.528 66.73 236.155 66.73C235.875 66.73 235.431 66.6833 234.825 66.59C234.218 66.5433 233.798 66.38 233.565 66.1C234.871 65.9133 236.365 65.68 238.045 65.4C239.771 65.1667 241.498 64.8633 243.225 64.49C244.951 64.1167 246.585 63.65 248.125 63.09C249.711 62.4833 251.018 61.7367 252.045 60.85C250.645 61.7833 249.198 62.53 247.705 63.09C246.258 63.6033 244.765 64 243.225 64.28C241.731 64.56 240.191 64.77 238.605 64.91C237.018 65.05 235.431 65.2133 233.845 65.4L234.055 64.63L233.845 64.07C232.958 64.21 232.141 64.35 231.395 64.49C230.695 64.63 229.948 64.7 229.155 64.7C228.361 64.7 227.591 64.6067 226.845 64.42L226.775 66.45L225.235 66.59ZM230.205 60.64C233.425 60.64 236.411 60.5467 239.165 60.36C241.965 60.1733 244.391 59.5667 246.445 58.54C248.498 57.5133 250.108 55.95 251.275 53.85C252.488 51.7033 253.095 48.6933 253.095 44.82C253.095 42.9067 252.955 40.9 252.675 38.8C252.441 36.6533 251.975 34.5767 251.275 32.57C250.621 30.5167 249.711 28.65 248.545 26.97C247.471 25.3833 246.118 24.0767 244.485 23.05C246.071 24.1233 247.378 25.4533 248.405 27.04C249.571 28.7667 250.458 30.6333 251.065 32.64C251.718 34.6467 252.161 36.7233 252.395 38.87C252.675 40.97 252.815 42.9767 252.815 44.89C252.815 47.4567 252.581 49.6033 252.115 51.33C251.648 53.01 250.995 54.3867 250.155 55.46C249.315 56.4867 248.265 57.28 247.005 57.84C245.791 58.4 244.415 58.82 242.875 59.1C241.381 59.3333 239.725 59.52 237.905 59.66C236.085 59.7533 234.148 59.87 232.095 60.01C233.728 59.31 235.478 58.8433 237.345 58.61C239.258 58.3767 241.078 58.0733 242.805 57.7C244.578 57.3267 246.165 56.6967 247.565 55.81C248.965 54.8767 250.015 53.36 250.715 51.26L251.555 50.98C251.741 50.0467 251.858 49.23 251.905 48.53C251.951 47.7833 251.975 46.9433 251.975 46.01C251.975 43.1167 251.741 40.2233 251.275 37.33C250.808 34.39 249.945 31.7533 248.685 29.42C247.425 27.04 245.675 25.1267 243.435 23.68C241.195 22.1867 238.325 21.44 234.825 21.44C233.518 21.44 232.211 21.5333 230.905 21.72C229.645 21.86 228.385 22.07 227.125 22.35C227.218 22.3967 227.265 22.4667 227.265 22.56C227.265 22.7 227.241 22.77 227.195 22.77C229.668 22.2567 232.048 22 234.335 22C237.181 22 239.655 22.5133 241.755 23.54C243.855 24.52 245.581 25.8967 246.935 27.67C248.335 29.3967 249.361 31.4267 250.015 33.76C250.715 36.0933 251.088 38.59 251.135 41.25C250.761 38.5433 250.248 36.0467 249.595 33.76C248.941 31.4267 247.985 29.42 246.725 27.74C245.465 26.06 243.831 24.7533 241.825 23.82C239.818 22.84 237.275 22.35 234.195 22.35C233.028 22.35 231.861 22.3733 230.695 22.42C229.528 22.4667 228.385 22.6767 227.265 23.05C227.498 25.9433 227.708 28.8133 227.895 31.66C228.081 34.5067 228.175 37.3767 228.175 40.27C228.175 44.0967 228.011 47.8767 227.685 51.61C227.405 55.2967 227.148 59.03 226.915 62.81C227.381 62.3433 227.918 61.97 228.525 61.69C229.131 61.3633 229.691 61.0133 230.205 60.64ZM258.135 45.03C258.135 42.7433 257.971 40.4333 257.645 38.1C257.365 35.7667 256.898 33.5033 256.245 31.31C256.898 33.69 257.341 36.07 257.575 38.45C257.855 40.83 257.995 43.2333 257.995 45.66C257.995 46.8733 257.925 48.11 257.785 49.37C257.738 49.51 257.715 49.65 257.715 49.79C257.995 48.25 258.135 46.6633 258.135 45.03ZM251.345 45.31C251.345 46.01 251.298 46.6867 251.205 47.34C251.251 47.06 251.275 46.78 251.275 46.5V44.19C251.275 44.2367 251.275 44.2833 251.275 44.33C251.321 44.61 251.345 44.9367 251.345 45.31ZM251.275 44.19C251.275 43.91 251.251 43.6533 251.205 43.42C251.251 43.7 251.275 43.9567 251.275 44.19ZM257.015 53.01C257.108 52.73 257.178 52.45 257.225 52.17C257.178 52.45 257.108 52.73 257.015 53.01Z" fill="white"/>
</svg>
